<?xml version="1.0" encoding="utf-8"?>
<!-- Generator: SketchAPI 5.1.298 <https://api.sketch.io/> -->
<svg version="1.1" xmlns="http://www.w3.org/2000/svg" xmlns:xlink="http://www.w3.org/1999/xlink" xmlns:sketchjs="https://sketch.io/dtd/" width="600" height="931.8163251112044" viewBox="527 185.69727914813257 200 310.60544170373487" sketchjs:version="5.1.298">
<g sketchjs:tool="clipart" style="mix-blend-mode: source-over;" transform="matrix(0.21376813770578565,0,0,0.21376813770578562,502.44018054626866,173.45895897311578)">
	<g sketchjs:uid="1" style="fill: #245d8d; fill-rule: nonzero; fill-opacity: 1;">
		<path d="M629.73 242.16c6-15.43 18.89-34.23 34.29-28.19l-9.37 84.31c-2.53 22.72-10.65 51.25-33.34 53.46 9.15-12.31.23-29.19-3.09-44.16-4.87-21.95 3.39-44.46 11.51-65.42zM735.49 227.82l4.25 83.36c.35 6.77-1 15.75-7.67 16.8-2.93.46-5.81-1-8.27-2.62C708.26 315 701 293.76 706.81 276a142.28 142.28 0 0 0 5.93-62.81c-1-7.29 10.5-10.57 16.05-5.75s6.33 13.03 6.7 20.38zM698.45 366.31c7.89-13.24-3.26-33.17-18.67-33.38s-27.09 19.41-19.57 32.86 30.36 13.77 38.24.52zM682.86 272c-5.05 10.22-2 23.78 6.91 30.88a24.6 24.6 0 0 1-17.15 3.47c-9-14.87-1.59-37 14.56-43.49a6.57 6.57 0 0 1-3.14 9.63zM608.07 246.44c3.2 3.53 0 10.37-4.77 10.16a69.77 69.77 0 0 1-11.63-35.69c10.83 2.56 18.75 14.09 17.25 25.09zM838.73 629.87l.62 13.25c-17-6-29.84-22.56-31.3-40.57 14 1.52 26.25 13.4 28.18 27.37zM826.05 672.24a49.75 49.75 0 0 1-36.92-28.17c17.01-2.07 34.43 11.22 36.92 28.17zM827 672.67A64.13 64.13 0 0 1 857.52 703a25.46 25.46 0 0 1-15.73 2.15l-17-30.18zM924.71 742.58c-5.39-11.25 11-25.35 20.62-17.47 1.13 11.32-10.67 22-21.82 19.65zM965.32 1052.72c-3.24-5.09 4.1-12 9.65-9.58s7 10.16 4.32 15.55-8.33 8.68-13.94 10.89l-2.16-16.14zM932.45 889.29c.55-6.69 8.55-13.39 13.55-8.88a24.81 24.81 0 0 1-2.2 16.59l-11.49-7zM792.81 731.62c8-2.08 7.05 12.58.38 17.45-7-2.35-6.92-14.45.06-16.75zM995 839.81a22.19 22.19 0 0 1 13 9.66 15.78 15.78 0 0 1-11 2 14.58 14.58 0 0 1-2-11zM834.71 1063.83a60 60 0 0 1-41.51-22.49c-7-8.91-11.25-19.61-14.83-30.34a88.79 88.79 0 0 1 56.34 52.83zM777.09 1035.19c2.49-1.53 5.53 2.1 4.66 4.89s-3.73 4.37-6.34 5.68c-6.17.62-2.65-12.23 2.5-8.79zM849.11 1418.67c-12.34 8.53-30.62 7.06-41.44-3.33 8.23-12.39 29.55-12.34 37.71.1zM981.71 698.52c-9.13 2.17-10.42-14.52-2.48-19.52 7.19 3.33 8.65 14.75 2.51 19.77zM785.64 895c-6.32-5.65 7.57-15.21 12.53-8.34s-1.69 17.11-9.93 19.08l-2.47-11.88z" sketchjs:uid="2" style=""/>
		<path d="M693.37 423.72c.19-19.18 1.73-41 16.67-53s44.79 1.13 37.91 19c-10.81 3.47-15.44 18.91-8.33 27.76 23.95 7.63 38-26.35 39.91-51.41-22.49.77-33.86-35.5-15-47.72l20.71 33a109 109 0 0 0-26.54-92.15l-3.41-82.64a316.24 316.24 0 0 1 50.18 188C804 390.79 796.18 421 772 431.11c-14.05 5.89-18 25.25-12.13 39.32s18.45 24 30.54 33.28A324 324 0 0 0 766 547.92l-32.35 12.23a516.09 516.09 0 0 0 172.33-11.59q-55.78-23.23-113.53-41.29l40.47-.53c71.22-.93 154.75 4.24 194.34 63.46 24.91 37.26 24.17 85.4 22.54 130.19L1027.83 1302c-1.18 32.41-2.5 65.5-14.09 95.79s-35.52 57.8-67.17 64.83c-44.27 9.83-99.7-19-131.28 13.55-32.67 33.66-88.18 22.53-133.07 9-18.79-5.68-40-13.6-46.71-32.07-4.07-11.26-1.5-23.92-4.48-35.52s-16.9-22.24-26.33-14.86a162 162 0 0 0 39.95 96.81c-42.65 14.58-89.07 11.2-134 7.65-88.06-7-176.27-13.94-263.31-29-13.82-2.39-27.79-5.05-40.39-11.2-50.17-24.5-59.41-90.77-62.12-146.53L116.42 736.1c-2.1-43.22-4.07-87.5 8.85-128.8s44-79.68 86.33-88.77c55.11-11.85 124 24.15 163.15-16.4 6.82-7.06 11.82-17.84 7.31-26.56-31-60-54.9-126-52.3-193.49s35.92-136.74 95.73-168.19c20.76-10.92 43.75-17 64.93-27.06 18.95-9 36.55-21.3 56.77-26.94s44.88-2.79 57.61 13.9c-46.48-15.71-103 16.81-112.87 64.88-19.22-12.36-45.4-12.93-65.14-1.42a432.22 432.22 0 0 0 277.52 2.38c-15.5-13.53-42.14-11.23-55.09 4.76a27.82 27.82 0 0 1 8.74-26.66l-22.52-14.23c45.08-12 97 16 111.88 60.23-5.62 13-24.5 17.94-35.76 9.3 11-1.09 4-20.8-6.94-20s-18.39 11-26.73 18.24c-25.68 22.2-64 16.76-97.71 21s-72 34.67-57.5 65.36a109.74 109.74 0 0 1 49.88-52.3 121.79 121.79 0 0 1-3.75 62.87l31.59 5.16c-13.88 6.86-12.86 31.11 1.54 36.78-19.39 7.83-43.74-11.53-40.48-32.19-11.29-.07-17.9 14.45-14.42 25.2s13.16 18.08 22.3 24.71l107.07 77.62a34.12 34.12 0 0 1-23.93 9.05A87.74 87.74 0 0 0 676 458.1l-180.29 17.5a501.36 501.36 0 0 0 221.79-4.24A428.91 428.91 0 0 1 566 525c64.19 9.59 132-8.66 182.76-49.16a190.88 190.88 0 0 0-79.66-41.64l24.27-10.48M572.83 862a24.4 24.4 0 0 1-17.59-8.68l18.08-13.49.41-19c-2.82 14.37-15.72 26.15-30.28 27.65 2.77 10.06-5.67 21.58-16.1 22-6.77 3.84-.65 15.9 7.1 15.22s12.74-8.82 14.07-16.49c5-1.4 8.37 5 9.62 10A24.79 24.79 0 0 0 572.83 862M358.4 1294.55c13.17-5 15.1-22.38 16.28-36.41s7.94-31.63 22-31.12c6.12.22 9.4-7.05 10.6-13.06a138.19 138.19 0 0 0 2-41c-9.13-6.89-21.15 6.43-20.83 17.86s6.15 22.86 3.09 33.88a51.25 51.25 0 0 1-33.65-14.89l.53 84.75m630.44-231.38a22.25 22.25 0 0 1 21.09 1.37 24.46 24.46 0 0 0 11.81-20.41c-40.3-4.84-71.66-47.83-64-87.68a32.79 32.79 0 0 0 28.24 3.13c-6.8 8.06-12.06 19.13-8.22 29s20.55 12.81 24.37 3l7.18 35.82c14.4-2.13 13.17-23.33 7.92-36.92l-19.94-51.66c-7.53-19.52-8-50.91 12.92-51.62l-4 35.43c32-33.59 28-94.49-8.18-123.57-22.59-18.17-22-53.57-40.36-76C940.2 701.73 910 696.93 886 683.46s-41.79-49.39-20.64-67.08a262.41 262.41 0 0 1 129.21-26.52c-6.61-40.89-53.71-70-93.23-57.6a58.24 58.24 0 0 0 14.32 30c10.33-14.06 36.16-10.84 42.73 5.32a26.63 26.63 0 0 1-26.59-5.66c-19.42 23.45-53 29.29-83.43 28.58s-61.38-6.29-91 .75a514.63 514.63 0 0 1-184.69 9.65C640.42 628.94 727 639.63 780 588.94c16.24 14.15 5.69 41.59-10.11 56.24s-36.81 26.23-43.07 46.82c-8.05 26.5 12.54 52.63 32.95 71.35s44.06 39.67 44.16 67.37c0 13.08 21.78 10.91 29.69.5S847 805.68 860 803.93c6.16 2.14 9.24 10.4 6 16a45.55 45.55 0 0 0 34.82-27.37c-14.93-9.79-35.8-9.53-50.48.64l-17.35-21.34c-10.54-.46-11.56 19.6-1 20.22-6.51 11.89-28.21 8.71-31-4.55a938.84 938.84 0 0 1 81.84-79.08L941 768.42c5.37 5.52 11.06 11.72 11.62 19.41.62 8.46-5.13 15.9-10.56 22.41l-60.49 72.46 54.17 52.92c5.33 5.2 11 11.14 11.4 18.58 1 18.25-29.18 34.3-17.25 48.14 10.51-4.18 20.46 8.75 20.76 20.06s-4.37 22.6-2.27 33.71c1.45 7.68 6 14.38 10.39 20.83l36.15 52.73c11.34-20.71 8.83-48.18-6.07-66.49m-26.3 238.89c30.6-23.34 43.58-62.62 53.89-99.7 5.05-18.19-8.29-36.14-22.18-48.93s-30.22-25.59-33.73-44.14c-2.89-15.31-14.35-27.32-22.31-40.71s-11.81-32.34-.75-43.32c-4.68-11.05-18.53-17.23-29.88-13.33s-18.47 17.29-15.37 28.88a57.32 57.32 0 0 0 26.7 2.75c1.75 6.89-4.59 13.74-11.57 15.11s-14.07-1.23-20.57-4.09c-53.92-23.76-97.17-70.64-116.53-126.29-16.28 2.95-13.31 27.46-4.9 41.7s16.48 35.94 2.15 44.22c-18.66 10.78-38.19 22.44-48.71 41.24s-7.64 46.9 11.55 56.68a159.43 159.43 0 0 1 73.54 78.74c8.69 5.53 22.11.09 24.5-9.92S821.25 1160 811 1161c-9.14.91-14.67-11.52-11.12-20s12.16-13.46 20-18.19 16.17-10.67 18.23-19.62c3.44-14.95 17-27 32.25-28.67s31.09 7.17 37.68 21l24-12.51 14.27 44.3c7.1 22-12.81 42.71-30.44 57.72s-36.68 37.11-27.68 58.44c5.59 13.24 20 20 31.74 28.18s22.63 23 16.53 36c-5.44 11.62-22.73 17.36-22.08 30.17s20.71 15.71 29.6 6.5 9.35-23.44 9.26-36.24l20.22 34.68c10.61 3.44 19.63-11.49 15.32-21.78s-15.68-15.48-26.27-19m-101.14 127.26c5.92-3.48 12.08-7.2 15.57-13.11s3.16-14.68-2.56-18.48a380.46 380.46 0 0 1-80.46-72c-8.57-10.21-17-22-16.73-35.34.33-16.15 12.94-34.14 2.8-46.71 7.85-7.82 20.32 5.6 19.15 16.61s-7.89 21.95-4.49 32.49c3.21 10 14.88 15.28 25.34 14.41a14.57 14.57 0 0 0 6.29-1.71c8.93-5.3 3.33-19.17-3.82-26.7s-15.62-18.46-9.57-26.9c10.44-14.57-4.24-38.76-22-36.22-12 1.71-20.95 13-23 24.91s1.6 24.13 6.91 35c-13.12-4.14-22.43 14.63-19 28s13.07 25.11 13.06 38.87c0 20.87-21 34.31-37 47.63s-28.74 39.66-12.87 53.2a206.6 206.6 0 0 0 58.89 35.21l83.51-49.12m-325.5-393.55a10 10 0 0 0-7.22 9.93c16.73 8.61 25.37 30.32 19.13 48.07-6.09 17.32 30.44 23.71 29.66 42.05-.84 19.52 10.76 37.27 23 52.47a379.13 379.13 0 0 0 86.37 78.34c5.31-.47 11-1.1 15.06-4.55s5.18-10.8.77-13.8c-41.85-28.44-85.9-59.52-105.08-106.35-2.6-6.34-4.75-13-8.89-18.47-5.12-6.76-12.8-11.09-18.68-17.2s-9.84-15.77-5.39-23c12-19.43-6-49.12-28.76-47.51m-45.05-669.12l-10.94 87.88c24.94-7.27 36.49-42.3 20.75-63-3.43-4.5.41-10.69 3.43-15.47 12.73-20.19 10.51-46.12 6.34-69.62A564.86 564.86 0 0 0 483.62 208c-13.15.23-15.38 19-12.69 31.88a462.72 462.72 0 0 0 26.3 84.39l-39.55-18.77c1.44 19.33 28.9 27.18 33.24 46.08 1.12 4.9.51 10-.11 15m96.63 436.75a141.13 141.13 0 0 0 53.25 67.16 15.24 15.24 0 0 0-5 15.86 89 89 0 0 1 53 22.35c6.35 5.69 16.71-4 14.91-12.3s-9.8-13.57-16.91-18.27a265.84 265.84 0 0 1-103-131.39L576.73 800c-.58 4.35-.54 9.9 3.43 11.76l7.28-8.41m-345.26 30.46l38.34 39.42c9.56 9.83 18.68 27.37 7.34 35.09a401.94 401.94 0 0 0-40.69 31.75c-6.92 6.16-14 13.31-15.25 22.5s7.13 19.76 16 17c-6-9.92 1.93-22.34 10-30.67a268.24 268.24 0 0 1 66.14-49.67 668.63 668.63 0 0 0-102.17-115c-7.26 17.53 7 36 20.26 49.58m343.43-266c22.69.18 45.58.34 67.83-4.11a244.24 244.24 0 0 0 36.46-10.78 461.89 461.89 0 0 0 72.4-34.08c9.77-6.54-1-23.41-12.76-22.64s-20.47 10.55-29.25 18.38c-39.14 34.86-96.33 37.94-148.72 39.21-3.5 2.66-2.19 8.69 1.37 11.27s8.27 2.72 12.67 2.76m381.95 142.72c4.4 3.45 9.86 6.16 12.19 11.25 1.57 3.41 1.43 7.32 1.91 11 2 15.55 16.65 28.45 32.33 28.47 12.64-4.38 8-23.67-.53-34s-19.15-24.46-11.27-35.28c8.26-11.33 2.07-29.63-11-34.79s-29.16 2.73-34.51 15.71-.16 29 10.88 37.65m-483.14 6c9 7.37 21.26 14.87 31.46 9.25l-41.73-53.27c-18-23-36.87-46.74-62.73-60.43-13.94 11.23-2.35 33.46 10.06 46.37a719.85 719.85 0 0 0 62.93 58.09m37.38 533.54c-4.3 9.91-.28 21.85 7 29.83s17.27 12.85 27 17.53c-3.42-8.28-9.28-15.31-13.45-23.25s-6.51-17.75-2.46-25.74 16.57-11.42 22.19-4.44c.5 9.7 11 17.55 20.46 15.28a27.8 27.8 0 0 1 2.2-25.44c10.05-6.13 23.76-2.26 32.35 5.79s13.25 19.33 17.66 30.25c3 7.44 16 2.72 16.75-5.27s-5.53-14.77-11.64-20a213.62 213.62 0 0 0-55.18-34.07 22.75 22.75 0 0 1-14 13.22l-2-11c6.46 3.26 13.43-6.21 10.66-12.9q-23.38 17.19-45.47 36.05c-4.75 4.06-9.6 8.37-12.08 14.1m112.61 135.15c8.2 6.13 20.61-4.38 19.25-14.52s-11-17.14-20.69-20.54c-9.8-3.46-11.79-17.43-6.8-26.54s14.38-14.76 22.72-21 16.56-14.43 17.19-24.8c-9.33-2.11-17.06 6.64-24.67 12.43s-22.28 6.31-23.29-3.2c-.4-3.73 1.83-7.21 2.43-10.92s-2.1-8.59-5.68-7.47c-14.13 16-16.14 39.88-10.46 60.42s17.94 38.54 30 56.12m-4-661.49c5.8-14.88-9.06-29-21.73-38.76s-26-26.38-17.29-39.76c6.13-9.41-12.11-19-19.86-10.91s-5 21.56.32 31.46a83.74 83.74 0 0 0 16.71 21.7c14.09 13.12 35 27.74 28.59 45.9a36.32 36.32 0 0 0 52.9 43.35c-11.06-5.16-22.39-10.51-30.78-19.37s-13.25-22.16-8.82-33.53m-106.35 361.79A496.3 496.3 0 0 1 413.58 982c-8 10.51-1.58 25.6 5.88 36.49a229 229 0 0 0 100.81 81.71 15.54 15.54 0 0 0 3.79-14.63m-48.17-342.7c-5.55-10.43-22.09-6-30 2.77s-13.59 20.85-24.8 24.58c-8.7 2.89-14.27 11.18-19.18 18.92-14.5 22.91-29.35 51.75-16.39 75.56 7.47 1.75 10.15-9.25 10.81-16.89 2.2-25.44 21.2-45.8 39.14-64l40.45-41m47.8 692.76l-84.24-81.28c-5.8-5.6-13.19-11.65-21-9.59-3.93 14.69 8 28.43 19 38.94l45.09 43.17c11.55 11.05 31.72 21.69 41.11 8.75m-278-777.13c9.85 2.84 17.66-14.15 27.31-10.7a11.75 11.75 0 0 1 5.23 4.38c10.13 13.8 5.47 32.91 2.28 49.74s-2.33 38.15 12.87 46l8.47-6.48c7-5.35 0-16.06-6.49-22s-11.87-18.11-3.87-21.71c15.8-7.11 18.25-30.18 9.29-45S275.5 629.47 260 621.72a54.29 54.29 0 0 0-14.34 36.77M483.1 1098a116.92 116.92 0 0 0-64.75 51.43c-3.32 5.61-5.73 13.81-.59 17.82a70.92 70.92 0 0 1 26.81 51.07c10.21 4.48 21.42-8.13 19.5-19.11s-11.86-18.72-21.86-23.64c-10.33-5.09-9.16-21.21-1.46-29.77s19.19-12.48 28.75-18.91 17.81-18.16 13.61-28.89m120-718.14c-10.13 7.58-25.62 6.81-34.95-1.73-10.76-9.85-12-26.11-12.41-40.69a25.53 25.53 0 0 0-20.9 21.73c-3.45 30.57 44.84 41.87 52.75 71.59a56.62 56.62 0 0 0 15.5-50.91m265.72 498l-5.82-47.5c-7.8 1.31-16.06 2.83-21.92 8.13s-7.77 15.77-1.71 20.86c15.87 13.35-15.61 41.62-3 58.06 7.11 9.24 23.27 4.78 29.17-5.28s4.67-22.6 3.25-34.18M320.21 1258c2.86 4.51 10.77 1.26 11.89-4s-2-10.34-5-14.76a592.19 592.19 0 0 0-77.89-92.51c-9.4 9.48-.88 25.23 7.68 35.48l63.3 75.76m628.94 153.63a34.91 34.91 0 0 1 20.68 21.1 29 29 0 0 0 11.85-15.7 114.38 114.38 0 0 1-26.8-32.17c9.76-2.72 19 4.89 28.12 9.22s24.18 1.92 23.9-8.21a338.4 338.4 0 0 0-38.69-25.57c-3.26-1.85-6.81-3.7-10.55-3.39-7.06.58-11.08 8.13-13.79 14.67-5.8 14-8.91 34.86 5.31 40.07m-210.89-159c-12.69 6.31-27.62 20-19.6 31.66 5.77 8.4 19.85 6.16 26.31-1.72s7.4-18.79 7.94-29c.64-12.18.84-25.3-6-35.41s-23.45-14.22-31.07-4.7c-5.41 6.76-3.71 17.16 1.53 24.05s13.18 11.09 20.87 15.08m-458.57 110.94l5.39 8.06c8.52-5.49 17.38-18.26 8.85-23.73-14-9-17-29.23-11.29-44.89s18.14-27.79 30.14-39.37c-29.37-1.49-56.42 27.34-53.06 56.56 1.84 16 11 30 20 43.37m622.22 43.8l-14.21 22.85a25.57 25.57 0 0 0 25.16 6.49 107.8 107.8 0 0 0 10.5-49.66c-.29-9.62-2.2-19.86-8.94-26.73s-19.54-8.3-25.49-.73c-7.5 9.54.72 23.29 9.49 31.67 2.92 2.79 6.19 6.08 5.93 10.11-.14 2.18-1.33 4.14-2.49 6M439.7 1287.59c3.32-11.74 6.63-24.19 3.44-36s-15.48-22-27.13-18.36l12 39.9c9.26 30.77 20.1 63.81 46.28 82.43l-2.25-12c-4.16-22.2-11.2-48-32.35-56m189.15-659c-6.9-.28-11.9 7.86-10.43 14.61s7.43 11.68 13.75 14.46a41.82 41.82 0 0 0 24 2.87c3.44 12.66 7.93 26.68 19.5 32.88s30.2-4.24 25.43-16.47c-30-.1-42.33-47.58-72.28-48.36m15.66 322.8l-14.45-14.44c-14.74 19.1-30 45.19-17 65.49 7.75 12.06 24.81 20.6 22.7 34.78 11 3.9 21.48-11 17.44-22s-16.38-16.61-28-18.21c-7.22-1-6.72-11.78-3.35-18.24a86.08 86.08 0 0 1 22.58-27.42M529.46 751.16a18.93 18.93 0 0 0 9.54 20.36 82.91 82.91 0 0 1 25.93-28.15c-5.7-7.24-6.09-17.3-5.06-26.46s3.2-18.4 1.67-27.49-8.13-18.24-17.32-18.9-17.43 11.63-11.16 18.4c16.28 17.59 17.27 47.29 2.2 65.93l-5.81-3.68M400.42 233a133 133 0 0 1-3.78 88c-2.59 6.41 1.92 14.65 8.72 15.92 18-50.73 14.49-108.72-9.56-156.89-9.61 15.61-.76 35.4 4.62 52.93m252.74 1161.9a98.21 98.21 0 0 1 22.28 22.48 18.74 18.74 0 0 0 2.7 37c3 .19 6.17-.44 8.22-2.57s2.6-5.64 2.91-8.76c1.24-12.52 2.46-25.35-.69-37.53s-11.63-23.78-23.78-27a39.05 39.05 0 0 0-11.64 16.38M316 1453c5.7 4.38 13.93-3.13 14-10.32s-4.35-13.68-6-20.68c-2.53-10.64 1.16-21.7 1.09-32.64s-6.88-23.81-17.8-23.26a133.1 133.1 0 0 0 5.06 81.08c.84 2.14 1.82 4.36 3.64 5.76m254.5 1c1.76-6.49-5.43-12.06-6.22-18.73-.67-5.67 3.34-10.7 5.31-16.06 4-10.89-1.64-24.4-12.2-29.2s-24.45-.17-30 10a29.54 29.54 0 0 1 21.42 23.76c1.31 8.91-1.54 18.38 1.62 26.8s17.72 12.1 20.08 3.42M414.88 584c-26.1-21.93-64.24-28.5-96.17-16.55-6.43-1.85-7.09-12.72-.94-15.34-3.76-7.9-17.47-5.54-20.38 2.71s3.06 17.59 11.06 21.13 17.23 2.61 25.78.77 17.05-4.54 25.8-4.34c18.84.44 36.19 14.26 54.85 11.63m75 307.79c8.31-7.89 4.89-22.32-2.62-31s-18.08-14.23-25.54-22.93c-7.78-9.07-17.46-23-27.85-17.06-4.57 5 .25 12.77 4.93 17.66l51.08 53.31M224.62 673.92c3.58 26 7.28 52.34 18.17 76.18 5.37 11.76 13.37 23.5 25.6 27.7 1.29-19.58-10.66-39.36-28.58-47.33 15.68-17.13 7-49.58-15.19-56.55m548.14 204.77a33 33 0 0 0-2.32 19.31c1.94 10.53 11.46 20.68 22 18.77 11.44-5.44 21-16.5 21.26-29.17s-11.28-25.31-23.8-23.34c-7.69 1.21-13.95 7.32-17.13 14.42m-361.51-2.63l4.68 19.95c3.84 16.3 7.69 32.65 13.75 48.26 4.28 11 10.63 22.53 21.72 26.59 6.65-2.3 6.6-12.28 2.46-18s-10.73-9.26-14.71-15.05c-7.41-10.78-3.78-25.26-4.32-38.33s-11.6-28.66-23.59-23.43m519.1-229.54c-4.07.18-8.95 1.77-11.69-1.25s-.62-7.8.3-11.82-2.36-9.89-5.84-7.67a92.72 92.72 0 0 0-6.72 50.52c10.17 8.4 27.14 9.28 35.69-.78s1.44-29.57-11.74-29M165.53 654a37.16 37.16 0 0 1 4.18-21.43c-.94-3.45-6.46-3.33-8.62-.48s-1.93 6.78-1.6 10.34l8 87.15a8.77 8.77 0 0 0 12.88-.68 61.12 61.12 0 0 1 7-57 65.91 65.91 0 0 0-21.84-17.9m851.06-3.7l20.59 2.3c7-12.28-3.54-26.84-13.34-37-6.15-6.37-13-13.11-21.8-14.24s-18.91 7-16.07 15.37c4 11.84 21.72 6.29 34 8.82l-3.33 24.74m-568-334.75c-5.44 13.13-11 26.76-10.48 41s8.83 29.17 22.6 32.68l10.81-10c-14.78-14.69-20.13-38.11-13.21-57.76a11.89 11.89 0 0 1-9.72-5.87m-65.07 75.78c13.57-19.06-17.92-43.86-11.3-66.3 2.32-7.87 9.12-16.48 4.24-23.08-10.31-1.64-19.38 8.71-20.39 19.11s3.6 20.41 8.11 29.83l19.34 40.44m-214 181.19c-3.07 2.09-6.29 4.37-7.73 7.79a10 10 0 0 0 2.68 11.2c11.74-8.12 23.77-16.39 37.55-20.13s29.87-2.16 40.26 7.62c-.17-15.07-17-25.53-32-24.64s-28.31 9.67-40.76 18.17m611.65 228.7c-18.43-.12-32.75 22.57-24.69 39.15 4.12 8.48 14.57 14.64 23.15 10.75a115.53 115.53 0 0 0 1.54-49.9m-401.07 70.41a113.81 113.81 0 0 0-42.4-19.84c16.54 21.39 19.79 49.87 22.43 76.78a118.55 118.55 0 0 1 20-56.93M776.65 1186c2.33-9.61-.22-24.7-9.86-22.5-10.85 2.46-19 13.4-18.64 24.52s8.69 21.39 19.39 24.42a26.17 26.17 0 0 0 9.78-26M880 1128.8c2.6 6.57 5.21 14 2.43 20.48s-13.79 8.8-16.48 2.27c-7.74 7.32.25 23.22 10.74 21.38 12-6.36 25.34-14.41 27.89-27.76s-16.42-27.24-24.59-16.37M590.9 1448.4a43.28 43.28 0 0 1-12 8.9c-5.49 13.82-1.07 31 10.42 40.39a93.19 93.19 0 0 0 1-79 27.78 27.78 0 0 0 .67 29.68m233.77-519c-2.05-12.81-24.61-11.83-27.95.71s10.27 25 23.18 23.71c6.07-.59 12.32-3.91 14.39-9.64s-2-13.38-8.13-13.24m-252.8 437.37a36.85 36.85 0 0 0 16.16 33.34c10.67-16.36 9.61-39.49-2.5-54.81a26.49 26.49 0 0 0-14.25 21.34m21.9-341.75c2.65-13 2.19-31.27-10.8-34.14-16.44 14-6.13 40.57 5.19 59A23.27 23.27 0 0 0 595 1027m90.4-283.56a43.34 43.34 0 0 0 1.38-33.11c-11.57 3.24-26.13 11.76-22 23.06l12.64 35 7.94-25.09m149.3 514.25c2.56 11.62 19.37 16.94 28.15 8.91s5-25.24-6.36-28.83-24.35 8.3-21.79 19.92m5.69 95.19a99.87 99.87 0 0 0 58.36-59.18c-1.64-3.63-7.68-3.95-9.69-.51l-48.67 59.68M725.52 871.5c-.19 8.05 7.61 15.35 15.63 14.62s14.37-9.32 12.73-17.2c-1.1-5.28-5.11-9.53-9.58-12.55-5.82-3.93-13.73-6.18-19.79-2.63s-6.65 14.57 0 16.71M618.9 1105.8c-8.16 7.38-.65 20.61 6.88 28.64l15.29 16.29c8.75-5.49 8.87-19 3-27.54s-15.75-13.13-25.16-17.4m247 111.66c-.72-13.79-8.48-32.76-21.5-28.15-11.75 4.16-7.93 23 2.2 30.24 6.82 4.89 19 5.58 21.24-2.51m-148-212.5v-13.31l-14.93-6.44-9.22 29.72c-2.12 6.84-2.54 16.91 4.45 18.46 12.12 2.69 8.4-23.11 19.95-27.66m-325.54 283.88a69.15 69.15 0 0 0 4.51 51.37c17.23-11.78 14.51-42.77-4.51-51.37M254.63 980.86a137.56 137.56 0 0 0 11.1 37.17c1.73 3.76 5.13 8.11 9 6.74 12.85-15.42-.07-43.59-20.14-43.91m133-16.15a33.74 33.74 0 0 0 6.41 28.15l10.26-5.93q-2.8-26.43-7.93-52.55c-9 6.54-12.55 19.59-8.11 29.78M475 1221.31c-8.22 13.06 6.22 33 21.19 29.29 1.46-8.77 2.8-18.33-1.52-26.1s-16.86-11.16-22-3.91M685.81 1047a25.27 25.27 0 0 0-22.44-14.25c-4 15.53 4.67 33.36 19.4 39.74a21.17 21.17 0 0 0 3.69-25.75m-2.46 55.33c1.29-4.72 1.17-10-1.38-14.2a14.13 14.13 0 0 0-17.76-5.07c-2.35 6.63-4.73 13.56-3.86 20.53s6.09 14 13.11 14.32 13.19-8.86 8.65-14.23m-58.41-10.68c10-2.57 8.65-17.89 1.84-25.58a39.56 39.56 0 0 0-31.45-13.06q14.56 19.51 29.61 38.64M262.92 1071c.77-13.06-8.7-26-21.38-29.23a84.15 84.15 0 0 0 14.46 49.59 18.09 18.09 0 0 0 6.59-20.09m31.2-26.64l6.87 15.94c9.75 2.17 17.47-10.4 14.81-20s-11.37-16.13-19.52-21.89l-2.54 25.75m-23.2 101c10 3.5 19.13-10 16-20.15s-12.89-16.51-22-22a53.81 53.81 0 0 0 9.77 37.29m-61.91-501.95c5.5-9.31-3-23.23-13.79-22.58a125.69 125.69 0 0 0-.16 45.83c9.18-2.4 15-13.49 11.75-22.41m710 796.95c-2.76 11.1 16.52 16.9 23.13 7.56s.93-23.13-8.51-29.59l-13.23 22.36m-429.54-141.6c9.7-2.47 15.25-15.4 9.78-23.79s-20.31-8-24.8 1 5.11 21.35 14.77 18.7m-34.9-717.16c-2.68-8.1-14.67-.38-18.3 7.34-5.37 11.42-10.13 26.65-.88 35.24l17.48-34.51c1.28-2.52 2.59-5.39 1.7-8.07m-197.66 827.35l4.32 28.23c16.25-8.92 14.36-37.63-2.92-44.34-5.93 2.79-8.1 11.42-4.2 16.68m473.05-473.23c7.76 5.58 20.66-.23 21.62-9.74s-10.54-17.78-19.25-13.84-10.13 18-2.37 23.59M420.52 461.51c-4.19-2.89-7.22 5-6.32 10a69.74 69.74 0 0 0 44 7.24c5-6.43-5.42-14.17-13.56-13.89s-18.28 2.25-22.77-4.54m-207.62 672.86l11.91 11.54a46.31 46.31 0 0 0 5.17-30.46c-.42-2.39-1.1-4.87-2.8-6.6-4.45-4.54-12.93-.6-15 5.43s.23 12.57 2.46 18.52m103.43-37.92c-3.39-10-14.51-16.61-24.88-14.91.34 9.45 1.39 20.28 9.1 25.75s21.91-3.14 16.84-11.12m344.62 85.66c-5.22 9 4 22.23 14.22 20.49s14.54-17.28 6.64-24c4.11 3.33-5.48 6.39-9.42 2.86s-12.6-5.9-12.12-.64m-151-562.82c8.16 15.17 32.41 8.69 43.5-4.49a43.89 43.89 0 0 0-40.95 4M405.8 425.59A18.38 18.38 0 0 0 416 443a50.47 50.47 0 0 0-4.38-49.57 25.07 25.07 0 0 0-1.27 30m73.26 118.38a79.61 79.61 0 0 0 50.19 16.65c2.82-6.78-8.6-9.68-15.76-8.05a20.46 20.46 0 0 0-8.48-12.3l-26 3.71m-250.42 778.74c-11.94 10.34-11.16 31.86 1.5 41.31 9.19-11.09 8.67-29-1.15-39.54M712 1341.94a17 17 0 0 1-18.3 11.59l6.55 14c14.69-4.1 23.94-18.2 31.86-31.24a20.55 20.55 0 0 0-20.56 5.92m230.6-731c-8.77 2.07-4 17.59 5 17.95s15.87-7.75 20.67-15.38a22 22 0 0 0-26.26-3.84M214.24 765l-.8-23.93c-14 6.39-18.73 27.11-8.9 38.94 6.84-.39 11.89-8.72 9.05-15m11.65 614.09a10.61 10.61 0 0 0-.1-13.7c-7.09 4.56-17.6 2.54-22.5-4.31a25.61 25.61 0 0 0 5.44 26.47c6.14 3.21 12.82-3 17-8.51m-2-387.83c2.09-6-8.33-7.84-13.78-4.59a149.26 149.26 0 0 0 6.81 37.46c10.51-6.55 13.65-22.48 6.39-32.52m-35.87 29.75c-8.24 12.15-5.38 30.47 6.17 39.52 6.15-13.26 8.8-34.41-5.49-37.5m190.4-418.16c4-5.57-3.85-12-10.3-14.36a59.31 59.31 0 0 0-22.07 19.91c10.22 5.85 24.56 3 31.73-6.36m106.52 330.4c9-.07 16.43-10.46 13.22-18.88s-16.14-11.05-22.12-4.31-1.35 19.6 7.6 20.64M654.08 943l22.7-28c-13-1.43-26.49 6.85-31.09 19.12-1.06 2.82-1.6 6.25.22 8.64s6.67 1.92 6.9-1.08m377-230.39c10.7-8.21 3.27-29.21-10.2-28.87-6.79 10.3-1.41 26.36 10.21 30.5M277.7 1456.54c2.7 5.06 5.65 10.39 10.67 13.16s12.67 1.53 14.62-3.87l-24.4-24.31c-5.94 2.34-7.41 11.62-2.49 15.69m310.76-749.75c-9.91 8.22-8.59 26.28 2.41 33 9.66-9.08 9.11-26.71-1.09-35.17M410.06 388.67l1.31-5.39c2.69-11.09 2.73-26.85-8.4-29.38a18.74 18.74 0 0 0-7 16.49c6.49 1.33 11.1 8.61 9.52 15m194.21 716.88a34.94 34.94 0 0 0-9.37-29.34c-10.59 8.66-4.82 29.36 8.72 31.29M373.3 1439l-13.37-9.73L364 1416l-10.34-1.47c-2 7.38-3.46 15.59 0 22.44s13.58 10.56 19 5.14m633.71-106.66l-10.82 6.49c-6.16 7.31 3.28 20.58 12.2 17.16s7.08-19.59-2.38-20.92M488.49 649.86c2.68 9.22 13 15.48 22.44 13.57 2.19-6.38 1-14.35-4.37-18.4s-14.89-1.68-16.24 4.92M870.7 960.21a24.42 24.42 0 0 0 17.91 8.79 35.94 35.94 0 0 0-16.31-28.74l-2.15 19.85m-696-40c-.24 8.05 10.37 14 17.14 9.69a93.42 93.42 0 0 0-28.8-30.24 18.83 18.83 0 0 0 12.22 19.62m234.93 338.42c1.07-6.07-9.13-9.32-12.62-4.24-5 9.1.68 22.16 10.71 24.79l2.24-20.76M374.13 246.27a14.12 14.12 0 0 0 2.77 12.58c11-6.2 14.55-22.64 7.06-32.82l-10.66 19.75m20.29 651c-4.76-2.61-10.63 3.3-9.89 8.67s5.47 9.27 10.22 11.89c8.35-4 8.65-18.17.48-22.58m285.68-72.95l-11.23-1.59-6.76 21.05a20.16 20.16 0 0 0 17.77-5.34l.1-13.21M528.82 1465.8c.2 7.37 8.68 13.21 15.63 10.77 4.11-4.28 3.27-12.22-1.65-15.55s-12.6-1.15-15 4.26m-89.65-938.04L427 529c-3 5.56 3.2 12.45 9.5 12.64s11.88-3.8 16.91-7.61l-15.14-6.31m-163.1 44.33c-1.31 2.54 3.66 4.32 5.37 2s.77-5.53-.23-8.22a23.94 23.94 0 0 0-27.7.3 17 17 0 0 0 21 4.86m311 753c.75-10.47-8.54-20.58-19-20.71A23 23 0 0 0 582 1325m-352.67-254.84l-7.58-15.6c-8.7 6.07-8.65 21.1.1 27.1l6.39-10.18m-25.32-380c-8.8 6.55-5.7 23.11 4.87 26.05a21.73 21.73 0 0 0-4.5-26.08M561.88 430.2c-1.46-4.44-8.39-5.66-11.27-2a32.82 32.82 0 0 0 21.16 19.8 14.32 14.32 0 0 0-9.66-16.76M688.68 809.6c8 5.61 20.82-4.15 17.57-13.33a18.24 18.24 0 0 0-18.23 13m174.15 182.66c-4 .45-6.08 6.37-3.19 9.22 11.31-3.19 18.09-17.26 13.55-28.09L862 991.29m-168.6 154.33l-11.18-1.7a13.08 13.08 0 0 0-1.81 11.09c5.08 6.48 17.77-1.79 13.9-9.06m-508.82-59.57a13 13 0 0 0 11-1.8c1.34-5.82-1.27-12.53-6.56-15.3-6.12 3.11-8.57 11.79-5 17.65m279.83-669.76a10.25 10.25 0 0 0-10.59 2.07c-3.17 4.85 1.93 12.46 7.62 11.36s7.59-10.06 2.84-13.38m-69.23 716.11c-1.57-5.11-8.64-7.53-13-4.47l6.94 15.4c4.76 2.35 7.36-5.77 6.5-11m185.7 153.08A17.91 17.91 0 0 0 571 1269c-4.89 6.36 1.24 17.4 9.22 16.62m-216.08 116.25c-1.5 5.13 6 10 10.07 6.53.18-8.42-11.31-14.35-18.07-9.33-1.8 3.34 5.28 6.1 6.21 2.42M448.1 294.43l4.59-13.53c-4.83-2.52-11.66.89-12.55 6.26s4.46 10.81 9.85 10M349.47 740.29c4.9 1.36 12.53-1.34 10.58-6-3.54-2.28-7.88-4.63-11.71-2.91s-2.85 9.42 1.21 8.33m618.63-102.77c-6.9-3.88-9.54 11.25-2.28 14.39a13.83 13.83 0 0 0 3.36-15.42M618.52 880c1.2 4.37 8.93.58 7.84-3.83s-6.23-6.3-10.69-7.12c-2.9 3.27-1.69 9.2 2.26 11.07M420.88 342c-5 3.28-2 12.81 3.93 12.72l6.61-11.7-10.83-2.11m150 621.17c3-2.19-1.44-7.42-4.66-5.65s-3 6.85-.58 9.58 6.28 3.72 9.86 4.57c4.09-1.87.28-9.66-3.71-7.59M294.08 827c4.66 3.86 14.55 1.65 13-4.18-4.54-3.85-14.41-1.32-12.4 4.28m416.57 319.41a13.4 13.4 0 0 0 1.55 10.69c3.87-2.53 8.23-6.06 7.67-10.64s-9.72-4.46-8.24-.08M541 1131.36c3.43-6.2-8.29-12.85-11.85-6.73-.39 5 6.64 8.64 10.5 5.45m126.26-147.43c-1.18-5-7.9-7.59-12.14-4.75-2.95 6.71 10.64 11.5 12.56 4.43m-189.17 472.91c3.62 6.85 16.24 4.66 17.34-3a16.15 16.15 0 0 0-16 2.85m41.77-535a10.39 10.39 0 0 0 12.88.75l-6.15-11.6a16.88 16.88 0 0 0-6.58 11.06M330.06 723.44c.9 4.17 8.27 1.82 8.39-2.44s-3.69-7.46-7.14-10a9.56 9.56 0 0 0 .59 12.37m72.36 19.41c.4 6.08 9.54 9.21 13.58 4.64a9.55 9.55 0 0 0-13-4.84m143.76-192.8c-3.55 1.36-4.25 7-1.14 9.23s8.22-.42 8.29-4.22l-5.88-6m-317.93 859.37c-1.32 4.45 6 8.1 8.79 4.36-.09-3.3-.5-7.18-3.35-8.85s-7.23 2.71-4.54 4.62m502.61 73.07c.82-6-7.89-11.54-11.5-6.68-.19 5.14 6.76 8.89 10.95 5.89z" sketchjs:uid="3" style=""/>
	</g>
</g>
</svg>